# xmcd
#
# Track frame offsets: 
#        150
#        16482
#        29030
#        45105
#        65660
#        81300
#        90860
#        118745
#        131450
#        152707
#
# Disc length: 2357 seconds
#
# Revision: 0
# Processed by: cddbd v1.5.2PL0 Copyright (c) Steve Scherf et al.
# Submitted via: ExactAudioCopy v0.99pb4
#
DISCID=7809330a
DTITLE=Fisk&CHristian - The Big Picture
DYEAR=2003
DGENRE=AustraliaCountry
TTITLE0=Feels Like Love
TTITLE1=The Recipe
TTITLE2=No Hat Requiered
TTITLE3=Under The Influence Of Love
TTITLE4=It Already Hurts
TTITLE5=Blowfly
TTITLE6=The Big Picture
TTITLE7=Noisy Farm
TTITLE8=Neon Ceiling
TTITLE9=Murdering Dam
EXTD=
EXTT0=
EXTT1=
EXTT2=
EXTT3=
EXTT4=
EXTT5=
EXTT6=
EXTT7=
EXTT8=
EXTT9=
PLAYORDER=
